<?xml version="1.0" standalone="no"?>
<!DOCTYPE svg PUBLIC "-//W3C//DTD SVG 20010904//EN"
 "http://www.w3.org/TR/2001/REC-SVG-20010904/DTD/svg10.dtd">
<svg version="1.0" xmlns="http://www.w3.org/2000/svg"
 width="700.000000pt" height="700.000000pt" viewBox="0 0 700.000000 700.000000"
 preserveAspectRatio="xMidYMid meet">
<metadata>
Created by potrace 1.14, written by Peter Selinger 2001-2017
</metadata>
<g transform="translate(0.000000,700.000000) scale(0.100000,-0.100000)"
fill="#000000" stroke="none">
<path d="M3200 6990 c-138 -14 -201 -23 -385 -55 -82 -15 -288 -69 -399 -105
-1141 -371 -2021 -1312 -2311 -2470 -24 -96 -60 -275 -69 -340 -2 -19 -10 -80
-18 -135 -21 -163 -17 -673 7 -815 2 -14 7 -45 10 -70 6 -49 9 -66 30 -182 34
-180 122 -479 190 -637 15 -36 29 -74 31 -85 8 -45 118 -261 206 -404 108
-179 251 -374 378 -517 46 -52 258 -263 296 -295 178 -150 247 -203 392 -299
459 -306 1001 -501 1572 -565 148 -17 638 -15 770 3 339 45 613 115 909 233
144 57 407 190 537 271 481 300 900 730 1179 1212 53 90 175 328 175 340 0 2
13 33 29 67 67 147 161 455 205 668 48 237 61 394 60 720 0 238 -12 397 -38
535 -2 11 -7 40 -11 65 -14 90 -75 330 -115 453 -381 1170 -1351 2057 -2550
2331 -58 13 -125 27 -150 31 -25 4 -54 9 -65 11 -160 33 -674 53 -865 34z"/>
</g>
</svg>
